#!OML:ASF H:\MichaelJackson\Top Level 1\Subject 1\Session 1\male.ASF
:FULLY-SPECIFIED
:DEGREES
340
root 8.21486 16.0589 -20.438 11.2993 23.9614 4.20613
lowerback -1.38476 -1.86767 -1.5665
upperback 1.60353 -2.44823 -0.0497662
thorax 2.48441 -1.24851 0.738255
lowerneck -5.62427 -8.68252 -0.617074
upperneck -2.14065 -11.5558 6.68099
head 0.727071 -5.71669 1.88311
rclavicle -6.7388e-014 -2.50469e-014
rhumerus -22.3485 19.0331 -73.7794
rradius 85.3812
rwrist 1.92886
rhand 12.3285 -11.5495
rfingers 7.12502
rthumb 37.3313 -757.528
lclavicle -6.7388e-014 -2.50469e-014
lhumerus -48.4057 -34.2404 109.762
lradius 57.3176
lwrist 21.5736
lhand 5.98544 12.5272
lfingers 7.12502
lthumb 31.3094 39.8692
rfemur -48.7522 -14.8953 10.1217
rtibia 55.8517
rfoot 2.90953 -18.8254
rtoes -4.67273
lfemur -8.64165 15.6195 -10.1327
ltibia 38.9778
lfoot 8.3267 28.7193
ltoes -32.3032
341
root 8.15052 16.0927 -20.2555 11.0399 22.2655 3.57223
lowerback -1.57563 -1.76822 -1.30937
upperback 1.54413 -2.3229 0.0714336
thorax 2.52197 -1.18256 0.718359
lowerneck -5.84467 -8.40598 -0.631387
upperneck -1.78036 -11.2075 6.59297
head 0.860787 -5.53136 1.85151
rclavicle 6.16232e-015 7.55382e-015
rhumerus -23.9374 18.3245 -75.8238
rradius 85.2454
rwrist 1.82535
rhand 5.08959 -12.8592
rfingers 7.12502
rthumb 30.4554 -760.363
lclavicle 6.16232e-015 7.55382e-015
lhumerus -48.3586 -33.1903 109.452
lradius 57.039
lwrist 21.7726
lhand 5.42774 12.2661
lfingers 7.12502
lthumb 30.7779 39.7097
rfemur -48.639 -15.4987 12.0414
rtibia 55.48
rfoot 1.98478 -17.8188
rtoes -6.80664
lfemur -7.94588 14.2908 -9.36507
ltibia 39.3534
lfoot 10.0008 29.2664
ltoes -30.9853
342
root 8.08257 16.1287 -20.0733 10.7424 20.5513 2.95088
lowerback -1.6875 -1.66294 -1.06132
upperback 1.51176 -2.19113 0.189779
thorax 2.54362 -1.11354 0.703334
lowerneck -6.05749 -8.12491 -0.639183
upperneck -1.42004 -10.8528 6.48417
head 0.991996 -5.34355 1.81432
rclavicle -4.48259e-014 7.95139e-015
rhumerus -25.468 17.623 -77.8089
rradius 84.9958
rwrist 1.83289
rhand -3.14231 -13.9058
rfingers 7.12502
rthumb 22.5774 -762.606
lclavicle -4.48259e-014 7.95139e-015
lhumerus -48.2894 -32.1888 109.13
lradius 56.7657
lwrist 21.7113
lhand 4.87827 11.9278
lfingers 7.12502
lthumb 30.2539 39.4688
rfemur -48.3957 -16.0535 13.9352
rtibia 55.0372
rfoot 0.992131 -16.7125
rtoes -7.8301
lfemur -7.30604 13.0249 -8.61042
ltibia 39.9479
lfoot 11.2668 29.7453
ltoes -28.9607
343
root 8.01148 16.166 -19.8923 10.4151 18.8346 2.35477
lowerback -1.72395 -1.55665 -0.831169
upperback 1.50475 -2.05843 0.305472
thorax 2.55007 -1.04436 0.697678
lowerneck -6.25553 -7.8406 -0.642066
upperneck -1.06721 -10.4926 6.35237
head 1.11719 -5.15413 1.77141
rclavicle 1.36664e-014 1.23246e-014
rhumerus -26.9196 16.941 -79.7108
rradius 84.633
rwrist 1.97529
rhand -11.6873 -14.9178
rfingers 7.12502
rthumb 14.3584 -764.401
lclavicle 1.36664e-014 1.23246e-014
lhumerus -48.196 -31.2383 108.798
lradius 56.5039
lwrist 21.4254
lhand 4.31686 11.5271
lfingers 7.12502
lthumb 29.7182 39.165
rfemur -48.0053 -16.5585 15.75
rtibia 54.539
rfoot -0.0744378 -15.5165
rtoes -7.97781
lfemur -6.74748 11.853 -7.88115
ltibia 40.7749
lfoot 12.0757 30.0997
ltoes -25.977
344
root 7.93769 16.2032 -19.7134 10.0655 17.134 1.79433
lowerback -1.6889 -1.45313 -0.62779
upperback 1.52046 -1.92902 0.418519
thorax 2.54107 -0.977288 0.705791
lowerneck -6.43265 -7.55596 -0.640744
upperneck -0.728057 -10.1301 6.19864
head 1.23367 -4.96503 1.72327
rclavicle 1.09829e-014 -8.34896e-015
rhumerus -28.2821 16.2733 -81.5099
rradius 84.1651
rwrist 2.27
rhand -19.9603 -16.1925
rfingers 7.12502
rthumb 6.37809 -766.076
lclavicle 1.09829e-014 -8.34896e-015
lhumerus -48.0794 -30.3479 108.462
lradius 56.2613
lwrist 20.9721
lhand 3.72593 11.0925
lfingers 7.12502
lthumb 29.154 38.8297
rfemur -47.4568 -17.0123 17.4382
rtibia 53.9997
rfoot -1.22134 -14.2428
rtoes -7.51052
lfemur -6.2926 10.8071 -7.184
ltibia 41.8393
lfoot 12.4536 30.2242
ltoes -21.7952
